<svg width="26" height="27" viewBox="0 0 26 27" fill="none" xmlns="http://www.w3.org/2000/svg">
<path d="M13.6027 0.696174L17.7354 1.5746L16.1969 8.8129L23.1543 4.29469L25.455 7.83745L18.7915 12.1656L25.9584 13.689L25.08 17.8217L17.4348 16.1966L13.6922 10.4336L7.92912 14.1761L0.283913 12.5511L1.16234 8.41842L8.32923 9.94179L4.00225 3.27753L7.54501 0.976834L12.0642 7.93447L13.6027 0.696174ZM22.2719 23.6543L18.7292 25.955L14.0762 18.79L12.4649 26.3707L8.33218 25.4922L9.94349 17.9116L2.77753 22.5644L0.476834 19.0216L7.93499 14.1774L17.4289 16.1954L22.2719 23.6543Z" fill="#313131"/>
</svg>
