<svg width="15" height="15" viewBox="0 0 15 15" fill="none" xmlns="http://www.w3.org/2000/svg">
<path fill-rule="evenodd" clip-rule="evenodd" d="M3.8305 1.8999C4.01615 1.8999 4.1942 1.97365 4.32547 2.10493C4.45675 2.2362 4.5305 2.41425 4.5305 2.5999V3.2999H5.2305C5.41615 3.2999 5.5942 3.37365 5.72547 3.50493C5.85675 3.6362 5.9305 3.81425 5.9305 3.9999C5.9305 4.18555 5.85675 4.3636 5.72547 4.49488C5.5942 4.62615 5.41615 4.6999 5.2305 4.6999H4.5305V5.3999C4.5305 5.58555 4.45675 5.7636 4.32547 5.89488C4.1942 6.02615 4.01615 6.0999 3.8305 6.0999C3.64485 6.0999 3.4668 6.02615 3.33552 5.89488C3.20425 5.7636 3.1305 5.58555 3.1305 5.3999V4.6999H2.4305C2.24485 4.6999 2.0668 4.62615 1.93552 4.49488C1.80425 4.3636 1.7305 4.18555 1.7305 3.9999C1.7305 3.81425 1.80425 3.6362 1.93552 3.50493C2.0668 3.37365 2.24485 3.2999 2.4305 3.2999H3.1305V2.5999C3.1305 2.41425 3.20425 2.2362 3.33552 2.10493C3.4668 1.97365 3.64485 1.8999 3.8305 1.8999ZM3.8305 8.8999C4.01615 8.8999 4.1942 8.97365 4.32547 9.10493C4.45675 9.2362 4.5305 9.41425 4.5305 9.5999V10.2999H5.2305C5.41615 10.2999 5.5942 10.3737 5.72547 10.5049C5.85675 10.6362 5.9305 10.8143 5.9305 10.9999C5.9305 11.1856 5.85675 11.3636 5.72547 11.4949C5.5942 11.6262 5.41615 11.6999 5.2305 11.6999H4.5305V12.3999C4.5305 12.5856 4.45675 12.7636 4.32547 12.8949C4.1942 13.0262 4.01615 13.0999 3.8305 13.0999C3.64485 13.0999 3.4668 13.0262 3.33552 12.8949C3.20425 12.7636 3.1305 12.5856 3.1305 12.3999V11.6999H2.4305C2.24485 11.6999 2.0668 11.6262 1.93552 11.4949C1.80425 11.3636 1.7305 11.1856 1.7305 10.9999C1.7305 10.8143 1.80425 10.6362 1.93552 10.5049C2.0668 10.3737 2.24485 10.2999 2.4305 10.2999H3.1305V9.5999C3.1305 9.41425 3.20425 9.2362 3.33552 9.10493C3.4668 8.97365 3.64485 8.8999 3.8305 8.8999ZM8.7305 1.8999C8.88498 1.89985 9.03514 1.95091 9.15758 2.04511C9.28002 2.13931 9.36785 2.27137 9.4074 2.4207L10.2327 5.5399L12.5805 6.8937C12.6869 6.95514 12.7753 7.04351 12.8367 7.14992C12.8981 7.25633 12.9305 7.37703 12.9305 7.4999C12.9305 7.62277 12.8981 7.74348 12.8367 7.84989C12.7753 7.9563 12.6869 8.04466 12.5805 8.1061L10.2327 9.4606L9.4067 12.5791C9.36708 12.7283 9.27926 12.8602 9.1569 12.9543C9.03454 13.0484 8.88451 13.0994 8.73015 13.0994C8.57579 13.0994 8.42576 13.0484 8.3034 12.9543C8.18104 12.8602 8.09322 12.7283 8.0536 12.5791L7.2283 9.4599L4.8805 8.1061C4.77409 8.04466 4.68574 7.9563 4.6243 7.84989C4.56287 7.74348 4.53053 7.62277 4.53053 7.4999C4.53053 7.37703 4.56287 7.25633 4.6243 7.14992C4.68574 7.04351 4.77409 6.95514 4.8805 6.8937L7.2283 5.5392L8.0543 2.4207C8.09382 2.27148 8.18155 2.13951 8.30384 2.04532C8.42614 1.95113 8.57614 1.90001 8.7305 1.8999Z" fill="white"/>
</svg>
